<svg width="20" height="21" viewBox="0 0 20 21" fill="none" xmlns="http://www.w3.org/2000/svg">
    <g clip-path="url(#clip0_5831_2760)">
        <path
            d="M12.5 5.76953C12.8452 5.76953 13.125 5.48971 13.125 5.14453C13.125 4.79935 12.8452 4.51953 12.5 4.51953C12.1548 4.51953 11.875 4.79935 11.875 5.14453C11.875 5.48971 12.1548 5.76953 12.5 5.76953Z"
            fill="#000000"/>
        <path
            d="M14.375 5.76953C14.7202 5.76953 15 5.48971 15 5.14453C15 4.79935 14.7202 4.51953 14.375 4.51953C14.0298 4.51953 13.75 4.79935 13.75 5.14453C13.75 5.48971 14.0298 5.76953 14.375 5.76953Z"
            fill="#000000"/>
        <path
            d="M16.25 5.76953C16.5952 5.76953 16.875 5.48971 16.875 5.14453C16.875 4.79935 16.5952 4.51953 16.25 4.51953C15.9048 4.51953 15.625 4.79935 15.625 5.14453C15.625 5.48971 15.9048 5.76953 16.25 5.76953Z"
            fill="#000000"/>
        <path
            d="M17.5 2.64453H2.5C2.1686 2.64491 1.85087 2.77673 1.61654 3.01107C1.3822 3.24541 1.25038 3.56313 1.25 3.89453V16.3945C1.25038 16.7259 1.3822 17.0437 1.61654 17.278C1.85087 17.5123 2.1686 17.6442 2.5 17.6445H17.5C17.8314 17.6442 18.1491 17.5123 18.3835 17.278C18.6178 17.0437 18.7496 16.7259 18.75 16.3945V3.89453C18.7496 3.56313 18.6178 3.24541 18.3835 3.01107C18.1491 2.77673 17.8314 2.64491 17.5 2.64453ZM17.5 3.89453V6.39453H2.5V3.89453H17.5ZM2.5 7.64453H6.25V16.3945H2.5V7.64453ZM7.5 16.3945V7.64453H17.5V16.3945H7.5Z"
            fill="#000000"/>
    </g>
    <defs>
        <clipPath id="clip0_5831_2760">
            <rect width="20" height="20" fill="white" transform="translate(0 0.144531)"/>
        </clipPath>
    </defs>
</svg>
